{"title":"War Horse 2011 DVDSCR XVID Une-CM8","uid":6941256,"size":740734706,"categoryP":"video","categoryS":"movies","magnet":"?xt=urn:btih:6509650e3d7d77008cfbc4eee8b8f35376c3f2a5&amp;dn=War+Horse+2011+DVDSCR+XVID+Une-CM8&amp;tr=udp%3A%2F%2Ftracker.openbittorrent.com%3A80&amp;tr=udp%3A%2F%2Fopen.demonii.com%3A1337&amp;tr=udp%3A%2F%2Ftracker.coppersurfer.tk%3A6969&amp;tr=udp%3A%2F%2Fexodus.desync.com%3A6969","seeders":1,"leechers":0,"uploader":"rcbcsk","files":3,"time":1326040071,"description":"War.Horse.2011.DVDSCR.XVID.Une-CM8\n\nCM8 Doing it right the first time\n\n\nOk just a little something to keep ya happy\nHad to be a small rip or it would take me a week to get it on my seeder :lol:\nThe masters will be working on better more suitable encodes for you quality nuts out there\nHas the occasional property of logo\nEnjoy\n\n &lt;a href=&quot;\nhttp://www.imdb.com/title/tt1568911/&quot; rel=&quot;nofollow&quot; target=&quot;_NEW&quot;&gt;\nhttp://www.imdb.com/title/tt1568911/&lt;/a&gt;\n\n\nGeneral\nComplete name : War.Horse.2011.DVDSCR.XVID.Une-CM8.avi\nFormat : AVI\nFormat/Info : Audio Video Interleave\nFile size : 701 MiB\nDuration : 2h 26mn\nOverall bit rate mode : Variable\nOverall bit rate : 668 Kbps\nWriting application : VirtualDubMod 1.5.4.1 (build 2178/release)\nWriting library : VirtualDubMod build 2178/release\n\nVideo\nID : 0\nFormat : MPEG-4 Visual\nFormat profile : Advanced Simple@L5\nFormat settings, BVOP : 1\nFormat settings, QPel : No\nFormat settings, GMC : No warppoints\nFormat settings, Matrix : Custom\nCodec ID : XVID\nCodec ID/Hint : XviD\nDuration : 2h 26mn\nBit rate : 538 Kbps\nWidth : 576 pixels\nHeight : 240 pixels\nDisplay aspect ratio : 2.40:1\nFrame rate : 23.976 fps\nColor space : YUV\nChroma subsampling : 4:2:0\nBit depth : 8 bits\nScan type : Progressive\nCompression mode : Lossy\nBits/(Pixel*Frame) : 0.162\nStream size : 564 MiB (81%)\nWriting library : XviD 1.2.1 (UTC 2008-12-04)\n\nAudio\nID : 1\nFormat : MPEG Audio\nFormat version : Version 1\nFormat profile : Layer 3\nMode : Joint stereo\nMode extension : MS Stereo\nCodec ID : 55\nCodec ID/Hint : MP3\nDuration : 2h 26mn\nBit rate mode : Variable\nBit rate : 118 Kbps\nNominal bit rate : 128 Kbps\nChannel(s) : 2 channels\nSampling rate : 48.0 KHz\nCompression mode : Lossy\nStream size : 123 MiB (18%)\nAlignment : Aligned on interleaves\nInterleave, duration : 24 ms (0.58 video frame)\nInterleave, preload duration : 156 ms\nWriting library : LAME3.98r\nEncoding settings : -m j -V 4 -q 2 -lowpass 17 --abr 128\n\nYoung Albert enlists to service in WWI after his beloved horse, Joey, is sold to the cavalry.\nAlbert's hopeful journey takes him out of England and across Europe as the war rages on.\n\n\nJeremy Irvine ... Albert Narracott\nPeter Mullan ... Ted Narracott\nEmily Watson ... Rose Narracott\nNiels Arestrup ... Grandfather\nDavid Thewlis ... Lyons","torrent":{"xt":"urn:btih:6509650e3d7d77008cfbc4eee8b8f35376c3f2a5","amp;dn":"War+Horse+2011+DVDSCR+XVID+Une-CM8","amp;tr":["udp%3A%2F%2Ftracker.openbittorrent.com%3A80","udp%3A%2F%2Fopen.demonii.com%3A1337","udp%3A%2F%2Ftracker.coppersurfer.tk%3A6969","udp%3A%2F%2Fexodus.desync.com%3A6969"],"infoHash":"6509650e3d7d77008cfbc4eee8b8f35376c3f2a5","infoHashBuffer":{"type":"Buffer","data":[101,9,101,14,61,125,119,0,140,251,196,238,232,184,243,83,118,195,242,165]},"announce":[],"urlList":[]}}